<?xml version="1.0" encoding="UTF-8" standalone="no"?>
<!DOCTYPE svg PUBLIC "-//W3C//DTD SVG 1.0//EN"
"http://www.w3.org/TR/2001/REC-SVG-20010904/DTD/svg10.dtd">
<!-- Created with Inkscape ("http://www.inkscape.org/") -->
<svg
   xmlns="http://www.w3.org/2000/svg"
   xmlns:xlink="http://www.w3.org/1999/xlink"
   version="1.0"
   x="0"
   y="0"
   width="744.094482"
   height="1052.36218"
   id="svg1">
  <defs
     id="defs3">
    <linearGradient
       id="linearGradient582">
      <stop
         style="stop-color:#000000;stop-opacity:1;"
         offset="0"
         id="stop583" />
      <stop
         style="stop-color:#ffffff;stop-opacity:1;"
         offset="1"
         id="stop584" />
    </linearGradient>
    <radialGradient
       id="radialGradient585"
       xlink:href="#linearGradient582" />
  </defs>
  <path
     d="M 609.72 549.778 C 602.401 566.944 596.957 585.036 587.761 601.274 C 530.965 701.567 408.941 750.634 298.525 717.58 C 168.062 678.524 91.6674 536.847 130.723 406.384 C 169.779 275.922 311.456 199.527 441.919 238.583 C 572.381 277.639 648.776 419.316 609.72 549.778 "
     transform="matrix(0.919521,0.000000,0.000000,0.971110,32.37170,46.79250)"
     style="font-size:12;fill:#0000ff;fill-rule:evenodd;stroke:#000000;stroke-width:3pt;"
     id="path563" />
  <rect
     width="0"
     height="1.03067017"
     x="351.453186"
     y="336.057312"
     style="font-size:12;fill:#0000ff;fill-opacity:0.75;fill-rule:evenodd;stroke-width:3pt;"
     id="rect565" />
  <path
     d="M 609.72 549.778 C 602.401 566.944 596.957 585.036 587.761 601.274 C 530.965 701.567 408.941 750.634 298.525 717.58 C 168.062 678.524 91.6674 536.847 130.723 406.384 C 169.779 275.922 311.456 199.527 441.919 238.583 C 572.381 277.639 648.776 419.316 609.72 549.778 "
     transform="matrix(0.806025,0.000000,0.000000,0.851429,74.90562,106.0728)"
     style="font-size:12;fill:#b7eeff;fill-rule:evenodd;stroke:#000000;stroke-width:3pt;"
     id="path570" />
  <path
     d="M 546.247 510.238 C 516.001 604.052 442.955 669.575 338.055 648.346 C 243.734 629.257 180.858 534.474 199.947 440.153 C 219.036 345.833 313.819 282.957 408.139 302.046 C 502.46 321.134 565.336 415.918 546.247 510.238 "
     transform="matrix(0.231811,0.972760,-0.972760,0.231811,749.3222,7.510422)"
     style="font-size:12;fill:#0000ff;fill-rule:evenodd;stroke:#000000;stroke-width:3pt;"
     id="path564" />
  <g
     style="font-size:12;"
     id="g628">
    <path
       d="M 331.275 312.08 C 331.285 311.307 339.625 365.782 341.686 365.808 C 343.748 365.833 409.924 369.748 410.465 367.694 C 411.007 365.64 415.802 311.586 415.802 311.586 C 415.802 311.586 391.909 305.877 374.637 306.436 C 346.809 306.347 331.025 311.562 331.275 312.08 z "
       style="fill:#9fedff;fill-rule:evenodd;stroke:#000000;stroke-width:1pt;"
       id="path595" />
    <g
       id="g624">
      <path
         d="M 324.984 651.746 C 324.975 652.519 334.668 598.269 336.729 598.294 C 338.791 598.32 405.045 596.054 405.534 598.121 C 406.025 600.188 409.472 654.345 409.472 654.345 C 409.472 654.345 385.445 659.456 368.192 658.469 C 340.371 657.864 324.721 652.258 324.984 651.746 z "
         style="fill:#9fedff;fill-rule:evenodd;stroke:#000000;stroke-width:1pt;"
         id="path597" />
      <path
         d="M 356.736 366.59 L 356.349 381.148 C 356.349 381.148 391.134 382.823 391.134 382.565 C 391.134 382.307 391.263 368.522 391.263 368.522 L 396.931 368.78 L 396.545 387.718 L 350.423 385.657 L 350.681 366.203 L 356.736 366.59 z "
         style="fill:#8cffff;fill-rule:evenodd;stroke:#000000;stroke-width:1pt;"
         id="path610" />
      <path
         d="M 387.655 597.327 L 387.913 584.83 C 387.913 583.799 353.772 583.67 353.772 583.928 C 353.772 584.186 352.999 597.456 352.999 597.456 L 347.331 597.198 L 347.717 578.26 L 393.839 578.517 L 393.967 597.456 L 387.655 597.327 z "
         style="fill:#8cffff;fill-rule:evenodd;stroke:#000000;stroke-width:1pt;"
         id="path623" />
    </g>
  </g>
  <path
     d="M 331.656 311.576 L 364.492 367.011 L 359.481 667.048 L 326.056 717.287 C 326.056 717.287 339.847 722.014 366.982 723.081 C 387.557 724.249 403.826 720.077 403.826 720.077 L 376.965 667.631 L 384.72 366.899 L 415.834 311.713 C 415.834 311.713 398.815 303.12 374.583 303 C 350.35 302.88 332.207 311.217 331.656 311.576 z "
     style="font-size:12;fill:#fcd200;fill-rule:evenodd;stroke:#000000;stroke-width:1pt;"
     id="path596" />
</svg>
